<?xml version="1.0" encoding="utf-8"?>
<!-- Generator: Adobe Illustrator 23.0.0, SVG Export Plug-In . SVG Version: 6.00 Build 0)  -->
<svg version="1.1" id="Capa_1" xmlns="http://www.w3.org/2000/svg" xmlns:xlink="http://www.w3.org/1999/xlink" x="0px" y="0px"
	 viewBox="0 0 1920 1080" style="enable-background:new 0 0 1920 1080;" xml:space="preserve">
<style type="text/css">
	.st0{opacity:0.08;}
</style>
<path class="st0" d="M748,1031.81c-3.47,0-6.28,2.81-6.28,6.28s2.81,6.28,6.28,6.28c2.73,0,5.04-1.76,5.9-4.19h63.51v63.51
	c-2.44,0.86-4.19,3.17-4.19,5.9c0,3.47,2.81,6.28,6.28,6.28s6.28-2.81,6.28-6.28c0-2.73-1.76-5.04-4.19-5.9V1036H753.9
	C753.03,1033.57,750.73,1031.81,748,1031.81z"/>
<path class="st0" d="M1582.46,42.03c3.47,0,6.28-2.81,6.28-6.28s-2.81-6.28-6.28-6.28c-2.73,0-5.04,1.76-5.9,4.19h-63.51v-63.51
	c2.44-0.86,4.19-3.17,4.19-5.9c0-3.47-2.81-6.28-6.28-6.28c-3.47,0-6.28,2.81-6.28,6.28c0,2.73,1.76,5.04,4.19,5.9v67.69h67.69
	C1577.43,40.28,1579.73,42.03,1582.46,42.03z"/>
<g class="st0">
	<path d="M575.9,95.75c-2.86,0-5.19,2.33-5.19,5.19s2.33,5.19,5.19,5.19s5.19-2.33,5.19-5.19S578.76,95.75,575.9,95.75z"/>
	<path d="M575.9,29.85c-2.86,0-5.19,2.33-5.19,5.19c0,2.86,2.33,5.19,5.19,5.19s5.19-2.33,5.19-5.19
		C581.08,32.18,578.76,29.85,575.9,29.85z"/>
	<circle cx="635.8" cy="100.93" r="5.19"/>
	<path d="M635.8,29.85c-2.86,0-5.19,2.33-5.19,5.19c0,2.86,2.33,5.19,5.19,5.19s5.19-2.33,5.19-5.19
		C640.99,32.18,638.66,29.85,635.8,29.85z"/>
	<path d="M695.71,95.75c-2.86,0-5.19,2.33-5.19,5.19s2.33,5.19,5.19,5.19s5.19-2.33,5.19-5.19S698.57,95.75,695.71,95.75z"/>
	<path d="M695.71,29.85c-2.86,0-5.19,2.33-5.19,5.19c0,2.86,2.33,5.19,5.19,5.19s5.19-2.33,5.19-5.19
		C700.9,32.18,698.57,29.85,695.71,29.85z"/>
	<path d="M755.62,95.75c-2.86,0-5.19,2.33-5.19,5.19s2.33,5.19,5.19,5.19s5.19-2.33,5.19-5.19S758.48,95.75,755.62,95.75z"/>
	<path d="M755.62,29.85c-2.86,0-5.19,2.33-5.19,5.19c0,2.86,2.33,5.19,5.19,5.19s5.19-2.33,5.19-5.19
		C760.8,32.18,758.48,29.85,755.62,29.85z"/>
	<path d="M815.52,95.75c-2.86,0-5.19,2.33-5.19,5.19s2.33,5.19,5.19,5.19s5.19-2.33,5.19-5.19S818.38,95.75,815.52,95.75z"/>
	<path d="M815.52,29.85c-2.86,0-5.19,2.33-5.19,5.19c0,2.86,2.33,5.19,5.19,5.19s5.19-2.33,5.19-5.19
		C820.71,32.18,818.38,29.85,815.52,29.85z"/>
</g>
<g class="st0">
	<path d="M1711.41,1043.8c-2.86,0-5.19,2.33-5.19,5.19s2.33,5.19,5.19,5.19c2.86,0,5.19-2.33,5.19-5.19
		S1714.27,1043.8,1711.41,1043.8z"/>
	<path d="M1711.41,977.91c-2.86,0-5.19,2.33-5.19,5.19s2.33,5.19,5.19,5.19c2.86,0,5.19-2.33,5.19-5.19
		S1714.27,977.91,1711.41,977.91z"/>
	<path d="M1711.41,912.01c-2.86,0-5.19,2.33-5.19,5.19s2.33,5.19,5.19,5.19c2.86,0,5.19-2.33,5.19-5.19
		S1714.27,912.01,1711.41,912.01z"/>
	<path d="M1771.32,1043.8c-2.86,0-5.19,2.33-5.19,5.19s2.33,5.19,5.19,5.19c2.86,0,5.19-2.33,5.19-5.19
		S1774.18,1043.8,1771.32,1043.8z"/>
	<path d="M1771.32,977.91c-2.86,0-5.19,2.33-5.19,5.19s2.33,5.19,5.19,5.19c2.86,0,5.19-2.33,5.19-5.19
		S1774.18,977.91,1771.32,977.91z"/>
	<circle cx="1771.32" cy="917.2" r="5.19"/>
	<path d="M1831.23,1043.8c-2.86,0-5.19,2.33-5.19,5.19s2.33,5.19,5.19,5.19c2.86,0,5.19-2.33,5.19-5.19
		S1834.09,1043.8,1831.23,1043.8z"/>
	<path d="M1831.23,977.91c-2.86,0-5.19,2.33-5.19,5.19s2.33,5.19,5.19,5.19c2.86,0,5.19-2.33,5.19-5.19
		S1834.09,977.91,1831.23,977.91z"/>
	<path d="M1831.23,912.01c-2.86,0-5.19,2.33-5.19,5.19s2.33,5.19,5.19,5.19c2.86,0,5.19-2.33,5.19-5.19
		S1834.09,912.01,1831.23,912.01z"/>
	<path d="M1891.13,1043.8c-2.86,0-5.19,2.33-5.19,5.19s2.33,5.19,5.19,5.19c2.86,0,5.19-2.33,5.19-5.19
		S1893.99,1043.8,1891.13,1043.8z"/>
	<path d="M1891.13,977.91c-2.86,0-5.19,2.33-5.19,5.19s2.33,5.19,5.19,5.19c2.86,0,5.19-2.33,5.19-5.19
		S1893.99,977.91,1891.13,977.91z"/>
	<path d="M1891.13,912.01c-2.86,0-5.19,2.33-5.19,5.19s2.33,5.19,5.19,5.19c2.86,0,5.19-2.33,5.19-5.19
		S1893.99,912.01,1891.13,912.01z"/>
</g>
<g class="st0">
	<g>
		<path d="M1339.39,385.54c-12.26,0-22.23-9.97-22.23-22.23s9.97-22.23,22.23-22.23c12.26,0,22.23,9.97,22.23,22.23
			S1351.65,385.54,1339.39,385.54z M1339.39,345.49c-9.83,0-17.82,7.99-17.82,17.82c0,9.83,8,17.82,17.82,17.82
			s17.82-7.99,17.82-17.82C1357.21,353.48,1349.21,345.49,1339.39,345.49z"/>
	</g>
	<g>
		<path d="M1339.39,401.33c-20.96,0-38.02-17.05-38.02-38.02s17.05-38.02,38.02-38.02c20.96,0,38.02,17.05,38.02,38.02
			S1360.35,401.33,1339.39,401.33z M1339.39,331.17c-17.72,0-32.14,14.42-32.14,32.14s14.42,32.14,32.14,32.14
			c17.72,0,32.14-14.42,32.14-32.14S1357.11,331.17,1339.39,331.17z"/>
	</g>
</g>
<g class="st0">
	<g>
		<path d="M0,117.98c-12.26,0-22.23-9.97-22.23-22.23S-12.26,73.52,0,73.52c12.26,0,22.23,9.97,22.23,22.23S12.26,117.98,0,117.98z
			 M0,77.93c-9.83,0-17.82,7.99-17.82,17.82s8,17.82,17.82,17.82s17.82-7.99,17.82-17.82S9.83,77.93,0,77.93z"/>
	</g>
	<g>
		<path d="M0,133.76c-20.96,0-38.02-17.05-38.02-38.02S-20.96,57.73,0,57.73c20.96,0,38.02,17.05,38.02,38.02S20.96,133.76,0,133.76
			z M0,63.61c-17.72,0-32.14,14.42-32.14,32.14S-17.72,127.89,0,127.89c17.72,0,32.14-14.42,32.14-32.14S17.72,63.61,0,63.61z"/>
	</g>
</g>
<g class="st0">
	<g>
		<path d="M213.95,375.93c-5.9,0-11.81-2.25-16.3-6.74l-12.87-12.49c-1.07-1.04-1.1-2.76-0.06-3.83c1.04-1.07,2.76-1.1,3.83-0.06
			l12.9,12.51c6.91,6.9,18.09,6.9,24.97,0.03l7.9-7.9c4.35-4.35,10.15-6.75,16.3-6.75c6.16,0,11.95,2.4,16.3,6.75l7.9,7.9
			c6.88,6.88,18.06,6.88,24.94,0l7.9-7.9c4.35-4.35,10.15-6.75,16.3-6.75s11.95,2.4,16.3,6.75l7.9,7.9c6.88,6.88,18.07,6.88,24.94,0
			l7.9-7.9c4.35-4.35,10.14-6.75,16.3-6.75s11.95,2.4,16.3,6.75l13.79,13.11c1.09,1.03,1.13,2.75,0.1,3.83
			c-1.03,1.09-2.75,1.13-3.83,0.1l-13.84-13.16c-3.38-3.38-7.81-5.21-12.52-5.21c-4.71,0-9.14,1.83-12.47,5.17l-7.9,7.9
			c-8.99,8.99-23.62,8.99-32.61,0l-7.9-7.9c-3.33-3.33-7.76-5.17-12.47-5.17c-4.71,0-9.14,1.83-12.47,5.17l-7.9,7.9
			c-8.99,8.99-23.62,8.99-32.61,0l-7.9-7.9c-3.33-3.33-7.76-5.17-12.47-5.17s-9.14,1.83-12.47,5.17l-7.9,7.9
			C225.75,373.68,219.85,375.93,213.95,375.93z"/>
	</g>
	<g>
		<path d="M287.29,409.5c-6.16,0-11.95-2.4-16.3-6.75l-7.9-7.9c-3.33-3.33-7.76-5.17-12.47-5.17s-9.14,1.83-12.47,5.17l-7.9,7.9
			c-4.35,4.35-10.14,6.75-16.3,6.75s-11.95-2.4-16.3-6.75l-12.87-12.49c-1.07-1.04-1.1-2.76-0.06-3.83c1.04-1.07,2.76-1.1,3.83-0.06
			l12.9,12.51c3.36,3.36,7.79,5.19,12.5,5.19c4.71,0,9.14-1.83,12.47-5.17l7.9-7.9c4.35-4.35,10.15-6.75,16.3-6.75
			c6.16,0,11.95,2.4,16.3,6.75l7.9,7.9c3.33,3.33,7.76,5.17,12.47,5.17c4.71,0,9.14-1.83,12.47-5.17l7.9-7.9
			c4.35-4.35,10.15-6.75,16.3-6.75s11.95,2.4,16.3,6.75l7.9,7.9c6.88,6.88,18.06,6.88,24.94,0l7.9-7.9
			c4.35-4.35,10.14-6.75,16.3-6.75s11.95,2.4,16.3,6.75l13.79,13.11c1.09,1.03,1.13,2.75,0.1,3.83c-1.03,1.09-2.75,1.13-3.83,0.1
			l-13.84-13.16c-3.38-3.38-7.81-5.21-12.52-5.21c-4.71,0-9.14,1.83-12.47,5.17l-7.9,7.9c-8.99,8.99-23.62,8.99-32.61,0l-7.9-7.9
			c-3.33-3.33-7.76-5.17-12.47-5.17c-4.71,0-9.14,1.83-12.47,5.17l-7.9,7.9C299.24,407.1,293.45,409.5,287.29,409.5z"/>
	</g>
</g>
<g class="st0">
	<g>
		<path d="M1281.4,732.99c-5.9,0-11.81-2.25-16.3-6.74l-12.87-12.49c-1.07-1.04-1.1-2.76-0.06-3.83c1.04-1.07,2.76-1.1,3.83-0.06
			l12.9,12.51c6.91,6.9,18.09,6.9,24.97,0.03l7.9-7.9c4.35-4.35,10.15-6.75,16.3-6.75c6.16,0,11.95,2.4,16.3,6.75l7.9,7.9
			c6.88,6.88,18.06,6.88,24.94,0l7.9-7.9c4.35-4.35,10.15-6.75,16.3-6.75s11.95,2.4,16.3,6.75l7.9,7.9c6.88,6.88,18.07,6.88,24.94,0
			l7.9-7.9c4.35-4.35,10.14-6.75,16.3-6.75c6.16,0,11.95,2.4,16.3,6.75l13.79,13.11c1.09,1.03,1.13,2.75,0.1,3.83
			c-1.03,1.09-2.75,1.13-3.83,0.1l-13.84-13.16c-3.38-3.38-7.81-5.21-12.52-5.21c-4.71,0-9.14,1.83-12.47,5.17l-7.9,7.9
			c-8.99,8.99-23.62,8.99-32.61,0l-7.9-7.9c-3.33-3.33-7.76-5.17-12.47-5.17c-4.71,0-9.14,1.83-12.47,5.17l-7.9,7.9
			c-8.99,8.99-23.62,8.99-32.61,0l-7.9-7.9c-3.33-3.33-7.76-5.17-12.47-5.17c-4.71,0-9.14,1.83-12.47,5.17l-7.9,7.9
			C1293.21,730.74,1287.3,732.99,1281.4,732.99z"/>
	</g>
	<g>
		<path d="M1354.75,766.56c-6.16,0-11.95-2.4-16.3-6.75l-7.9-7.9c-3.33-3.33-7.76-5.17-12.47-5.17c-4.71,0-9.14,1.83-12.47,5.17
			l-7.9,7.9c-4.35,4.35-10.14,6.75-16.3,6.75c-6.16,0-11.95-2.4-16.3-6.75l-12.87-12.49c-1.07-1.04-1.1-2.76-0.06-3.83
			c1.04-1.07,2.76-1.1,3.83-0.06l12.9,12.51c3.36,3.36,7.79,5.19,12.5,5.19c4.71,0,9.14-1.83,12.47-5.17l7.9-7.9
			c4.35-4.35,10.15-6.75,16.3-6.75c6.16,0,11.95,2.4,16.3,6.75l7.9,7.9c3.33,3.33,7.76,5.17,12.47,5.17c4.71,0,9.14-1.83,12.47-5.17
			l7.9-7.9c4.35-4.35,10.15-6.75,16.3-6.75s11.95,2.4,16.3,6.75l7.9,7.9c6.88,6.88,18.06,6.88,24.94,0l7.9-7.9
			c4.35-4.35,10.14-6.75,16.3-6.75c6.16,0,11.95,2.4,16.3,6.75l13.79,13.11c1.09,1.03,1.13,2.75,0.1,3.83
			c-1.03,1.09-2.75,1.13-3.83,0.1l-13.84-13.16c-3.38-3.38-7.81-5.21-12.52-5.21c-4.71,0-9.14,1.83-12.47,5.17l-7.9,7.9
			c-8.99,8.99-23.62,8.99-32.61,0l-7.9-7.9c-3.33-3.33-7.76-5.17-12.47-5.17c-4.71,0-9.14,1.83-12.47,5.17l-7.9,7.9
			C1366.7,764.16,1360.91,766.56,1354.75,766.56z"/>
	</g>
</g>
<g class="st0">
	<path d="M1806.13,297.93l70.06-53.74c-5.36,1.95-10.57,4.22-15.61,6.75l-43.83,33.62C1812.96,288.8,1809.41,293.26,1806.13,297.93z
		"/>
	<path d="M1785.13,341.69l138.63-106.33c-2.42,0.05-4.83,0.15-7.22,0.31l-129.23,99.13C1786.53,337.07,1785.8,339.37,1785.13,341.69
		z"/>
	<path d="M1779.66,373.54l176.37-135.28c-1.82-0.37-3.66-0.7-5.51-1L1780.1,367.99C1779.92,369.83,1779.78,371.68,1779.66,373.54z"
		/>
	<path d="M1780.48,400.58l201.44-154.51c-1.5-0.61-3-1.2-4.52-1.76l-197.42,151.43C1780.12,397.36,1780.28,398.97,1780.48,400.58z"
		/>
	<path d="M1785.43,424.44l218.22-167.38c-1.27-0.78-2.54-1.54-3.83-2.28l-215.59,165.36
		C1784.61,421.58,1785.01,423.01,1785.43,424.44z"/>
	<path d="M1793.63,445.81l228.53-175.29c-1.08-0.92-2.17-1.82-3.28-2.71l-227.02,174.13
		C1792.43,443.24,1793.02,444.53,1793.63,445.81z"/>
	<path d="M1804.63,465.03l233.26-178.92c-0.91-1.05-1.84-2.08-2.77-3.1l-232.76,178.54
		C1803.09,462.73,1803.85,463.88,1804.63,465.03z"/>
	<path d="M1818.25,482.24l232.74-178.52c-0.74-1.17-1.5-2.33-2.27-3.48l-233.24,178.9C1816.39,480.19,1817.32,481.22,1818.25,482.24
		z"/>
	<path d="M1834.51,497.43l226.96-174.08c-0.57-1.3-1.16-2.59-1.77-3.87l-228.47,175.24C1832.31,495.64,1833.4,496.54,1834.51,497.43
		z"/>
	<path d="M1853.59,510.45l215.48-165.28c-0.38-1.44-0.78-2.88-1.2-4.3l-218.12,167.3C1851.02,508.95,1852.3,509.71,1853.59,510.45z"
		/>
	<path d="M1876.04,520.89l197.25-151.3c-0.14-1.62-0.31-3.24-0.5-4.84l-201.28,154.39C1873.01,519.74,1874.52,520.33,1876.04,520.89
		z"/>
	<path d="M1902.95,527.91l170.18-130.54c0.18-1.84,0.33-3.7,0.44-5.56l-176.14,135.1C1899.26,527.28,1901.1,527.61,1902.95,527.91z"
		/>
</g>
<g class="st0">
	<path d="M-108.69,974.44L29.94,868.11c-2.42,0.05-4.83,0.15-7.22,0.31l-129.23,99.13C-107.29,969.83-108.02,972.12-108.69,974.44z"
		/>
	<path d="M-114.16,1006.3L62.21,871.02c-1.82-0.37-3.66-0.7-5.51-1l-170.43,130.72C-113.91,1002.58-114.05,1004.44-114.16,1006.3z"
		/>
	<path d="M-113.34,1033.33L88.09,878.82c-1.5-0.61-3-1.2-4.52-1.76l-197.42,151.43C-113.71,1030.11-113.54,1031.73-113.34,1033.33z"
		/>
	<path d="M-108.39,1057.19l218.22-167.38c-1.27-0.78-2.54-1.54-3.83-2.28l-215.59,165.36
		C-109.22,1054.33-108.81,1055.77-108.39,1057.19z"/>
	<path d="M-100.2,1078.57l228.53-175.29c-1.08-0.92-2.17-1.82-3.28-2.71l-227.02,174.13C-101.4,1076-100.81,1077.29-100.2,1078.57z"
		/>
	<path d="M-89.2,1097.79l233.26-178.92c-0.91-1.05-1.84-2.08-2.77-3.1l-232.76,178.54C-90.73,1095.48-89.97,1096.64-89.2,1097.79z"
		/>
	<path d="M-75.57,1114.99l232.74-178.52c-0.74-1.17-1.5-2.33-2.27-3.48l-233.24,178.9C-77.44,1112.94-76.51,1113.97-75.57,1114.99z"
		/>
	<path d="M-59.32,1130.18L167.64,956.1c-0.57-1.3-1.16-2.59-1.77-3.87L-62.6,1127.47C-61.52,1128.39-60.42,1129.29-59.32,1130.18z"
		/>
	<path d="M-40.23,1143.2l215.48-165.28c-0.38-1.44-0.78-2.88-1.2-4.3l-218.12,167.3C-42.8,1141.7-41.52,1142.46-40.23,1143.2z"/>
	<path d="M-17.79,1153.64l197.25-151.3c-0.14-1.62-0.31-3.24-0.5-4.84l-201.28,154.39C-20.81,1152.5-19.31,1153.09-17.79,1153.64z"
		/>
	<path d="M9.13,1160.66l170.18-130.54c0.18-1.84,0.33-3.7,0.44-5.56L3.61,1159.67C5.44,1160.03,7.28,1160.36,9.13,1160.66z"/>
	<path d="M43.18,1162.19l128.83-98.82c0.79-2.28,1.52-4.58,2.19-6.91L35.94,1162.52C38.37,1162.47,40.79,1162.36,43.18,1162.19z"/>
</g>
<g class="st0">
	<path d="M809.36,665.35v-55.19c-30.71,0-55.61,24.9-55.61,55.61h55.61L809.36,665.35z"/>
	<g>
		<path d="M783.75,745.25c-11.75,0-21.31-9.56-21.31-21.31c0-11.75,9.56-21.31,21.31-21.31c11.75,0,21.31,9.56,21.31,21.31
			C805.06,735.69,795.5,745.25,783.75,745.25z M783.75,707.58c-9.02,0-16.36,7.34-16.36,16.36c0,9.02,7.34,16.36,16.36,16.36
			c9.02,0,16.36-7.34,16.36-16.36C800.11,714.92,792.77,707.58,783.75,707.58z"/>
	</g>
</g>
</svg>
